<?xml version="1.0" encoding="UTF-8" standalone="no"?>
<!-- Created with Inkscape (http://www.inkscape.org/) -->

<svg
   width="4.23385mm"
   height="3.9950969mm"
   viewBox="0 0 4.23385 3.9950969"
   version="1.1"
   id="svg1"
   xmlns="http://www.w3.org/2000/svg"
   xmlns:svg="http://www.w3.org/2000/svg">
  <defs
     id="defs1" />
  <g
     id="layer1"
     transform="translate(-115.22346,-106.92062)">
    <path
       id="path20"
       style="fill:currentColor;stroke-width:0.264583"
       d="m 118.20881,110.59583 -0.52865,-0.52916 h -1.00149 c -0.0734,0 -0.1323,-0.0589 -0.1323,-0.1323 v -0.26458 c 0,-0.0734 0.0589,-0.13229 0.1323,-0.13229 h 0.47335 l -0.60565,-0.60616 v 0.20928 c 0,0.0734 -0.0589,0.1323 -0.13229,0.1323 h -0.26458 c -0.0734,0 -0.13229,-0.0589 -0.13229,-0.1323 v -0.26458 c 0,-0.0734 0.0589,-0.13229 0.13229,-0.13229 h 0.20929 l -0.26407,-0.26458 h -0.2098 c -0.0734,0 -0.1323,-0.0589 -0.1323,-0.1323 v -0.21032 l -0.41806,-0.41858 c -0.0701,0.10485 -0.1111,0.23043 -0.1111,0.36432 v 1.85208 c 0,0.36174 0.29972,0.66146 0.66146,0.66146 z m -2.32389,-1.05833 h 0.26458 c 0.0734,0 0.13229,0.0589 0.13229,0.13229 v 0.26458 c 0,0.0734 -0.0589,0.1323 -0.13229,0.1323 h -0.26458 c -0.0734,0 -0.1323,-0.0589 -0.1323,-0.1323 v -0.26458 c 0,-0.0734 0.0589,-0.13229 0.1323,-0.13229 z m -0.25529,-2.61689 -0.29145,0.29093 3.70003,3.70417 0.29146,-0.29145 -0.15193,-0.15193 c 0.16864,-0.12061 0.27957,-0.31816 0.27957,-0.53847 v -1.85209 c 0,-0.36174 -0.29972,-0.66145 -0.66146,-0.66145 h -2.66702 z m 1.04904,1.02887 h 0.26458 c 0.0734,0 0.13229,0.0589 0.13229,0.13229 v 0.26459 c 0,0.007 -5.6e-4,0.0136 -0.002,0.0202 l -0.41496,-0.41548 c 0.006,-9.5e-4 0.0129,-0.002 0.0196,-0.002 z m 0.78755,5.2e-4 h 0.26458 c 0.0734,0 0.13229,0.0589 0.13229,0.13229 v 0.26458 c 0,0.0734 -0.0589,0.1323 -0.13229,0.1323 h -0.26458 c -0.0734,0 -0.1323,-0.0589 -0.1323,-0.1323 v -0.26458 c 0,-0.0734 0.0589,-0.13229 0.1323,-0.13229 z m 0.79375,0 h 0.26458 c 0.0734,0 0.13229,0.0589 0.13229,0.13229 v 0.26458 c 0,0.0734 -0.0589,0.1323 -0.13229,0.1323 h -0.26458 c -0.0734,0 -0.1323,-0.0589 -0.1323,-0.1323 v -0.26458 c 0,-0.0734 0.0589,-0.13229 0.1323,-0.13229 z m -0.52917,0.79375 h 0.26458 c 0.0734,0 0.13229,0.0589 0.13229,0.13229 v 0.26458 c 0,0.0734 -0.0589,0.1323 -0.13229,0.1323 h -0.0155 l -0.38137,-0.38138 v -0.0155 c 0,-0.0734 0.0589,-0.13229 0.13229,-0.13229 z m 0.79375,0 h 0.26458 c 0.0734,0 0.13229,0.0589 0.13229,0.13229 v 0.26458 c 0,0.0734 -0.0589,0.1323 -0.13229,0.1323 h -0.26458 c -0.0734,0 -0.13229,-0.0589 -0.13229,-0.1323 v -0.26458 c 0,-0.0734 0.0589,-0.13229 0.13229,-0.13229 z m -0.25838,0.79323 h 0.26458 c 0.0734,0 0.13229,0.0589 0.13229,0.13229 v 0.26459 c 0,0.007 -4.2e-4,0.0147 -0.002,0.0217 l -0.41651,-0.41703 c 0.007,-10e-4 0.014,-0.002 0.0212,-0.002 z" />
  </g>
</svg>
